<svg width="30" height="30" viewBox="0 0 30 30" fill="none" xmlns="http://www.w3.org/2000/svg">
<path d="M20.1425 1.94125L28.0588 9.8575C28.3162 10.1147 28.5053 10.432 28.6091 10.7808C28.7129 11.1295 28.7281 11.4987 28.6533 11.8548C28.5784 12.2109 28.4159 12.5427 28.1805 12.8201C27.9451 13.0976 27.6442 13.3119 27.305 13.4437L25.2675 14.235C24.249 14.6314 23.336 15.2579 22.5999 16.0657C21.8637 16.8734 21.3243 17.8405 21.0238 18.8912L19.61 23.84C19.5054 24.2063 19.307 24.5389 19.0343 24.8049C18.7617 25.0709 18.4243 25.2612 18.0556 25.3568C17.6869 25.4523 17.2995 25.45 16.932 25.3499C16.5645 25.2499 16.2294 25.0556 15.96 24.7862L11.25 20.0762L4.25628 27.0687C4.16928 27.1557 4.06599 27.2248 3.95232 27.2718C3.83865 27.3189 3.71681 27.3432 3.59378 27.3432C3.47074 27.3432 3.34891 27.3189 3.23523 27.2718C3.12156 27.2248 3.01828 27.1557 2.93128 27.0687C2.84428 26.9817 2.77526 26.8785 2.72818 26.7648C2.68109 26.6511 2.65686 26.5293 2.65686 26.4062C2.65686 26.2832 2.68109 26.1614 2.72818 26.0477C2.77526 25.934 2.84428 25.8307 2.93128 25.7437L9.92378 18.75L5.21378 14.04C4.94446 13.7706 4.75015 13.4356 4.65009 13.068C4.55002 12.7005 4.54767 12.3132 4.64326 11.9444C4.73886 11.5757 4.92908 11.2383 5.19511 10.9657C5.46114 10.693 5.79375 10.4946 6.16003 10.39L11.1088 8.97625C12.1596 8.67576 13.1266 8.13635 13.9343 7.40017C14.7421 6.66398 15.3686 5.75097 15.765 4.7325L16.5563 2.695C16.6881 2.35584 16.9024 2.05493 17.1799 1.81951C17.4574 1.58409 17.7892 1.4216 18.1452 1.34676C18.5013 1.27192 18.8705 1.28709 19.2192 1.39089C19.568 1.4947 19.8853 1.68386 20.1425 1.94125ZM6.54003 12.7137L17.2863 23.46C17.3248 23.4984 17.3726 23.5262 17.4251 23.5404C17.4775 23.5547 17.5328 23.5551 17.5855 23.5414C17.6381 23.5278 17.6863 23.5006 17.7252 23.4627C17.7642 23.4247 17.7925 23.3773 17.8075 23.325L19.2213 18.3762C19.6011 17.0474 20.2832 15.8244 21.2141 14.8028C22.145 13.7813 23.2996 12.9888 24.5875 12.4875L26.625 11.695C26.6733 11.6761 26.716 11.6455 26.7495 11.6059C26.783 11.5663 26.8061 11.5191 26.8167 11.4684C26.8274 11.4177 26.8253 11.3651 26.8106 11.3154C26.7959 11.2657 26.7691 11.2205 26.7325 11.1837L18.8163 3.2675C18.7795 3.23096 18.7343 3.20414 18.6846 3.18944C18.6349 3.17475 18.5823 3.17263 18.5316 3.18329C18.4809 3.19396 18.4337 3.21706 18.3941 3.25052C18.3546 3.28399 18.3239 3.32676 18.305 3.375L17.5125 5.4125C17.0112 6.70045 16.2188 7.85501 15.1972 8.78592C14.1756 9.71684 12.9526 10.3989 11.6238 10.7787L6.67503 12.1925C6.62275 12.2075 6.57529 12.2358 6.53733 12.2748C6.49938 12.3137 6.47224 12.3619 6.45861 12.4146C6.44497 12.4672 6.44531 12.5225 6.45959 12.575C6.47387 12.6274 6.50159 12.6753 6.54003 12.7137Z" fill="#222222"/>
</svg>
