<svg width="106" height="106" viewBox="0 0 106 106" fill="none" xmlns="http://www.w3.org/2000/svg">
<path d="M50.7916 13.2676C48.3036 13.303 45.8449 13.4016 43.4158 13.5636C24.9364 14.7914 10.2201 29.7197 9.00994 48.4552C8.77598 52.1615 8.77598 55.8789 9.00994 59.5852C9.45161 66.409 12.4682 72.7292 16.0236 78.0646C18.0862 81.7966 16.7259 86.4606 14.5749 90.5328C13.0291 93.4699 12.2518 94.9362 12.8745 95.9962C13.4929 97.0562 14.8841 97.0916 17.6622 97.1578C23.1609 97.2903 26.8665 95.7356 29.808 93.5671C31.4731 92.3348 32.3079 91.7209 32.882 91.6502C33.4562 91.5796 34.5913 92.0477 36.8526 92.9752C38.8843 93.8144 41.2472 94.3311 43.4114 94.4769C49.7051 94.8921 56.2815 94.8965 62.5885 94.4769C81.0634 93.2491 95.7798 78.3207 96.9899 59.5852C97.224 55.9194 97.224 52.1211 96.9899 48.4552C96.7481 44.723 95.9563 41.0469 94.6403 37.5461" stroke="black" stroke-width="1.5625" stroke-linecap="round" stroke-linejoin="round"/>
<path d="M61.8333 26.5C61.8333 26.5 66.2499 26.5 70.6666 35.3333C70.6666 35.3333 84.6983 13.25 97.1666 8.83331M52.9778 55.2083H53.022M70.6268 55.2083H70.6666M35.3333 55.2083H35.373" stroke="black" stroke-width="1.5625" stroke-linecap="round" stroke-linejoin="round"/>
</svg>
