<svg width="30" height="30" viewBox="0 0 30 30" fill="none" xmlns="http://www.w3.org/2000/svg">
<path d="M3.51428 2.37856C3.44071 2.29961 3.35199 2.23629 3.25342 2.19237C3.15485 2.14845 3.04845 2.12483 2.94055 2.12293C2.83265 2.12102 2.72548 2.14087 2.62542 2.18129C2.52536 2.2217 2.43447 2.28186 2.35816 2.35816C2.28186 2.43447 2.2217 2.52536 2.18129 2.62542C2.14087 2.72548 2.12102 2.83265 2.12293 2.94055C2.12483 3.04845 2.14845 3.15485 2.19237 3.25342C2.23629 3.35199 2.29961 3.44071 2.37856 3.51428L10.4914 11.6282L6.60749 13.1218C6.31581 13.2338 6.05676 13.417 5.85387 13.6546C5.65098 13.8922 5.51069 14.1768 5.44575 14.4824C5.38082 14.788 5.39329 15.1051 5.48203 15.4046C5.57078 15.7042 5.73299 15.9769 5.95392 16.1978L9.3107 19.5536L3.21428 25.65V26.7857H4.34999L10.4464 20.6893L13.8021 24.045C14.0231 24.2657 14.2957 24.4277 14.5951 24.5163C14.8946 24.6049 15.2115 24.6173 15.5169 24.5524C15.8224 24.4874 16.1068 24.3472 16.3443 24.1445C16.5819 23.9418 16.765 23.6829 16.8771 23.3914L18.3718 19.5086L26.4846 27.6225C26.6354 27.7732 26.8398 27.8579 27.053 27.8579C27.2662 27.8579 27.4707 27.7732 27.6214 27.6225C27.7722 27.4717 27.8569 27.2673 27.8569 27.0541C27.8569 26.8409 27.7722 26.6365 27.6214 26.4857L3.51428 2.37856ZM17.13 18.2668L17.0796 18.39L15.3771 22.815C15.3611 22.8566 15.3349 22.8936 15.301 22.9225C15.267 22.9515 15.2264 22.9715 15.1828 22.9807C15.1391 22.99 15.0939 22.9882 15.0511 22.9756C15.0083 22.9629 14.9694 22.9397 14.9378 22.9082L7.0907 15.0611C7.05917 15.0295 7.03602 14.9906 7.02336 14.9478C7.01069 14.905 7.0089 14.8598 7.01816 14.8161C7.02742 14.7725 7.04743 14.7319 7.07638 14.6979C7.10533 14.664 7.14229 14.6378 7.18392 14.6218L11.6089 12.9203C11.6518 12.9046 11.6932 12.8878 11.7332 12.87L17.13 18.2668ZM12.6407 9.23249L13.8482 10.4389L16.2418 5.38606C16.3704 5.11434 16.5624 4.87752 16.8017 4.69558C17.0411 4.51364 17.3206 4.39191 17.6168 4.34065C17.913 4.28939 18.2172 4.3101 18.5038 4.40105C18.7903 4.49199 19.0508 4.6505 19.2632 4.8632L25.1368 10.7378C25.3493 10.9503 25.5076 11.2107 25.5984 11.4971C25.6892 11.7835 25.7098 12.0876 25.6586 12.3836C25.6073 12.6797 25.4857 12.9591 25.3039 13.1983C25.1221 13.4375 24.8854 13.6295 24.6139 13.7582L19.5611 16.1518L20.7675 17.3582L25.3018 15.21C27.4778 14.1793 27.9761 11.3036 26.2736 9.60106L20.3989 3.72642C18.6953 2.02285 15.8207 2.52213 14.7889 4.6982L12.6407 9.23249Z" fill="#222222"/>
</svg>
