<svg width="30" height="30" viewBox="0 0 30 30" fill="none" xmlns="http://www.w3.org/2000/svg">
<path d="M17.7125 26.1125C22.9425 25.7662 27.1075 21.5412 27.45 16.2375C27.5163 15.2 27.5163 14.125 27.45 13.0875C27.1075 7.78498 22.9425 3.56248 17.7125 3.21373C15.9062 3.09469 14.0939 3.09469 12.2875 3.21373C7.05753 3.56123 2.89253 7.78498 2.55003 13.0887C2.48381 14.1377 2.48381 15.1898 2.55003 16.2387C2.67503 18.17 3.52878 19.9587 4.53503 21.4687C5.11878 22.525 4.73378 23.8437 4.12503 24.9975C3.68753 25.8287 3.46753 26.2437 3.64378 26.5437C3.81878 26.8437 4.21253 26.8537 4.99878 26.8725C6.55503 26.91 7.60378 26.47 8.43628 25.8562C8.90753 25.5075 9.14378 25.3337 9.30628 25.3137C9.46878 25.2937 9.79003 25.4262 10.43 25.6887C11.005 25.9262 11.6738 26.0725 12.2863 26.1137C14.0675 26.2312 15.9288 26.2312 17.7138 26.1137" stroke="#222222" stroke-width="1.5625" stroke-linecap="round" stroke-linejoin="round"/>
<path d="M13.125 11.9225C13.125 10.86 13.965 10 15 10C16.035 10 16.875 10.8613 16.875 11.9225C16.875 12.3063 16.7663 12.6625 16.5775 12.9625C16.0175 13.855 15 14.7075 15 15.7687V16.25M15 18.75H15.0112" stroke="#222222" stroke-width="1.5625" stroke-linecap="round" stroke-linejoin="round"/>
</svg>
