<?xml version="1.0" standalone="no"?>
<!DOCTYPE svg PUBLIC "-//W3C//DTD SVG 20010904//EN"
 "http://www.w3.org/TR/2001/REC-SVG-20010904/DTD/svg10.dtd">
<svg version="1.0" xmlns="http://www.w3.org/2000/svg"
 width="40.000000pt" height="40.000000pt" viewBox="0 0 1024.000000 1024.000000"
 preserveAspectRatio="xMidYMid meet">

<g transform="translate(0.000000,1024.000000) scale(0.100000,-0.100000)"
fill="#000000" stroke="none">
<path d="M4000 8074 c-279 -5 -627 -24 -746 -39 -135 -18 -310 -62 -417 -104
-549 -218 -849 -624 -917 -1241 -20 -187 -34 -1507 -21 -2052 6 -276 16 -537
21 -578 6 -41 24 -126 41 -188 118 -448 402 -752 836 -897 l82 -28 3 -341 3
-341 25 -45 c45 -80 133 -109 228 -76 103 37 455 257 890 559 l174 120 506 -7
c549 -7 1735 7 1965 24 236 18 440 54 602 106 532 172 869 506 989 980 69 273
81 519 80 1554 -2 1021 -12 1216 -79 1480 -133 529 -476 890 -965 1015 -180
46 -362 67 -750 86 -201 9 -2186 20 -2550 13z m1085 -1388 c188 -87 191 -342
6 -438 -165 -86 -351 32 -351 221 0 55 5 75 30 118 65 113 197 155 315 99z
m2163 -658 c105 -43 173 -89 258 -173 65 -64 89 -96 122 -165 23 -47 50 -118
61 -158 25 -93 45 -260 37 -315 l-6 -42 -529 3 -529 2 10 -42 c27 -123 88
-202 195 -255 74 -37 81 -38 183 -38 93 0 112 3 162 27 61 28 143 98 153 129
6 18 9 17 58 -8 29 -15 98 -45 155 -68 l102 -42 -38 -59 c-142 -218 -427 -336
-712 -295 -163 24 -285 84 -398 194 -151 149 -222 326 -222 555 1 238 68 400
240 572 98 99 176 149 285 183 76 24 90 25 225 23 109 -2 133 -5 188 -28z
m-958 2 c64 -18 63 -15 45 -136 -9 -60 -23 -140 -32 -177 -14 -63 -17 -68 -37
-62 -11 3 -57 9 -102 12 -207 15 -339 -100 -364 -317 -5 -47 -10 -241 -10
-432 l0 -348 -185 0 -185 0 0 715 0 715 164 0 164 0 5 -32 c4 -18 12 -79 19
-136 l12 -102 25 52 c31 64 140 177 201 208 93 48 199 63 280 40z m-3395 -202
c27 -95 85 -302 130 -461 l82 -287 82 267 c45 148 107 354 139 458 l58 190
184 0 185 0 134 -452 c75 -249 138 -449 142 -445 6 7 33 102 190 675 l62 227
184 0 c122 0 183 -4 183 -11 0 -8 -296 -984 -410 -1351 l-21 -68 -154 -2 c-85
-1 -171 -2 -191 -2 l-36 -1 -144 444 c-79 244 -145 445 -147 447 -2 3 -49
-152 -243 -804 l-25 -82 -197 2 -196 3 -197 687 c-108 378 -200 699 -203 713
l-6 25 183 0 184 0 48 -172z m2265 -543 l0 -715 -180 0 -180 0 0 715 0 715
180 0 180 0 0 -715z"/>
<path d="M6909 5726 c-101 -36 -164 -112 -204 -243 l-6 -23 331 0 332 0 -7 33
c-21 103 -95 191 -192 227 -63 23 -197 27 -254 6z"/>
</g>
</svg>
